# xmcd
#
# Track frame offsets:
#	150
#	20632
#	33197
#	46523
#	59814
#	72983
#	88506
#	101560
#	114384
#	130626
#	141802
#	154901
#	171216
#	188873
#	203618
#	216935
#	228219
#	245093
#	258684
#	274528
#	289194
#	302292
#	319420
#	334716
#
# Disc length: 4674 seconds
#
# Revision: 1
# Processed by: cddbd v1.5.1PL0 Copyright (c) Steve Scherf et al.
# Submitted via: EasyCDDAExtractor 6.2.0.3
#
DISCID=5b124018
DTITLE=Various Artist - Segunda Coletânea Jornal Sertanejo
DYEAR=2004
DGENRE=Other
TTITLE0=Sérgio Reis - Filho Adotivo
TTITLE1=Teodoro and Sampaio - Aqui Pra Ela
TTITLE2=Renan and Ronaldo - Bateu Valeu
TTITLE3=Robertto Meirin and Marciano - A Coisa Das Muié
TTITLE4=Santana and Said - Sogra Boa
TTITLE5=Ronaldo Adriano and Teodoro - Vivendo Longe Do Meu Bem
TTITLE6=Otávio Augusto and Gabriel - Mala Amarela
TTITLE7=Mococa and Paraíso - Muita Gente Na Cozinha
TTITLE8=Jean Carlos and Deone - Remelexo
TTITLE9=Luidy and Luan - Eu Tô Qui Tô
TTITLE10=Lindomar Ferreira - Aguenta Coração Aguenta
TTITLE11=Chico Rey and Paraná - Bomba Relógio
TTITLE12=Lourenço and Tibai - Mistura Dos Ritmos
TTITLE13=Luciano and Daniel - Bate Que Eu Gamo
TTITLE14=Jalles and Soares - Fim De Viagem
TTITLE15=Marcos and Miguel - Montar É Minha Paixão
TTITLE16=Roger and Robson - Gandaia
TTITLE17=Max and Elimar - Saudade De Coxim
TTITLE18=André Luís and Waguininho - Segredos
TTITLE19=Geração Raíz - Simprão Di Tudo
TTITLE20=Berlim and Carlos Royce - Exame De Dna
TTITLE21=Rita De Cássia and Adilson Luiz - Você E Eu
TTITLE22=Gm E Mário Moreira - Bailão Do Gm E Mário Moreira
TTITLE23=Janaina Barros - O Melô Das Comitivas
EXTD=by Flávio Abrahão Biasuz\n
EXTT0=
EXTT1=
EXTT2=
EXTT3=
EXTT4=
EXTT5=
EXTT6=
EXTT7=
EXTT8=
EXTT9=
EXTT10=
EXTT11=
EXTT12=
EXTT13=
EXTT14=
EXTT15=
EXTT16=
EXTT17=
EXTT18=
EXTT19=
EXTT20=
EXTT21=
EXTT22=
EXTT23=
PLAYORDER=
